<?xml version="1.0" encoding="utf-8"?>
<!-- Generator: Adobe Illustrator 26.0.3, SVG Export Plug-In . SVG Version: 6.00 Build 0)  -->
<svg version="1.1" id="Layer_1" xmlns="http://www.w3.org/2000/svg" xmlns:xlink="http://www.w3.org/1999/xlink" x="0px" y="0px"
	 viewBox="0 0 1339.03 650" style="enable-background:new 0 0 1339.03 650;" xml:space="preserve">
<g>
	<path fill="#ffffff" d="M991.28,424.66c-4.33,16.83-8.41,33.74-13.3,50.41c-0.68,2.33-5.33,4.65-8.28,4.85c-3.37,0.24-6.88-2-10.37-2.99
		c-21.24-6.04-21.24-6.03-26.47,14.35c-3.88,15.11-3.68,15.52,11.06,19.83c2.8,0.82,5.76,1.1,8.54,1.97
		c14.16,4.43,18.24,18.83,8.01,29.84c-1.75,1.88-6.61,2.02-9.66,1.32c-13.72-3.14-24.96,0.69-32.39,12.32
		c-4.97,7.78-10.76,8.75-18.56,6.34c-3.48-1.08-7.11-1.7-10.66-2.56c-14.1-3.41-14.02-3.39-18.82,11.11
		c-0.77,2.33-2.62,4.3-3.98,6.43c-1.63-2.15-3.68-4.1-4.81-6.48c-5.64-11.85-11.74-23.56-16.32-35.82
		c-4.86-12.98-11.99-20.98-27.04-20.53c-3.97,0.12-11.22-3.57-11.47-6.05c-0.58-5.84-0.69-14.05,9.14-14.19
		c7.87-0.11,7.94-4.66,5.99-10.24c-0.95-2.74-2.5-5.27-3.7-7.93c-9.21-20.24-9.15-20.16,8.2-32.35
		c26.87-18.88,53.63-37.9,80.51-56.77c2.96-2.08,6.35-3.53,9.54-5.28c-0.24,3.35,0.12,6.88-0.82,10.03
		c-2.33,7.79-0.85,12.48,8.04,14.13c12.2,2.26,24.35,4.98,36.35,8.15c9.19,2.43,13.83-1.14,15.9-9.73
		c1.54-6.4,2.94-12.84,4.87-19.12c2.3-7.47,2.76-13.82-4.31-19.57c-8.27-6.73-8.95-15.74-6.41-25.92c6.74-26.93,13-53.99,19.01-81.1
		c2.05-9.25,6.64-15.83,14.83-20.49c24.13-13.75,47.93-28.09,72.24-41.52c16.75-9.25,33.78-8.76,49.52,2.83
		c14.75,10.87,17.48,25.62,13.93,42.97c-7.46,36.51-13.35,73.35-21.55,109.69c-3.78,16.75-0.32,27.5,14.41,36.63
		c14.23,8.82,26.98,20.02,40.45,30.08c9.89,7.39,15.86,17.09,17.35,29.33c4.31,35.55,8.89,71.07,12.56,106.69
		c2.21,21.47-10.3,33.45-31.19,31.5c-13.9-1.29-21.44-8.08-23.8-24.08c-3.63-24.57-7.1-49.23-8.97-73.97
		c-1.54-20.35-8.08-35.99-26.55-46.95c-15.64-9.28-29.58-21.4-44.46-32.01c-25.33-18.06-35.08-41.77-28.01-72.51
		c4.74-20.64,8.47-41.52,12.26-62.36c0.58-3.17-0.98-6.73-1.55-10.11c-3.27,1.08-7.82,1.18-9.57,3.44
		c-4.31,5.56-8.8,11.71-10.61,18.34c-5.58,20.43-9.73,41.25-14.91,61.79c-1.38,5.49-3.05,12.21-6.97,15.53
		c-19.18,16.22-16.43,39.04-22.03,59.33C988.03,423.73,989.66,424.19,991.28,424.66z"/>
	<path fill="#ffffff" d="M666.3,305.01c-1.46-0.01-2.92,0.05-4.38-0.01c-12.14-0.51-13.19-1.36-9.65-12.38c7.11-22.2,14.88-44.2,22.31-66.3
		c1.62-4.82,3.73-9.65,4.29-14.63c1.49-13.07-8.25-20.38-18.94-13.15c-7.28,4.93-13.91,13.09-17.15,21.27
		c-9.38,23.68-16.63,48.19-25.36,72.14c-1.75,4.81-5.83,11.6-9.69,12.23c-9.09,1.49-18.72,0-28.05-1c-0.63-0.07-1.66-6.48-0.73-9.37
		c6.93-21.5,14.31-42.86,21.54-64.27c1.4-4.14,2.38-8.47,4.21-12.41c3.51-7.51,3.75-14.23-3.85-19.18
		c-7.6-4.95-15.01-1.43-19.75,3.84c-5.64,6.27-10.23,14.12-13.2,22.06c-7.93,21.14-14.67,42.72-22.03,64.08
		c-5.93,17.19-6.03,17.16-24.42,17.11c-3.65-0.01-7.3-0.1-10.95-0.14c-5.48-0.06-7.91-2-5.87-7.97
		c12.7-37.24,25.33-74.51,37.77-111.84c2.5-7.51,7.34-10.04,14.86-9.77c20.16,0.7,40.29,1.23,60.5,0.66
		c9.94-0.28,20.03,7.47,30.07,7.52c9.66,0.05,19.35-5.15,29.04-8c0.68-0.2,1.45-0.04,2.18-0.08c34.13-1.81,45.97,12.69,36.02,45.59
		c-6.75,22.3-15.11,44.11-22.54,66.21C685.44,308.32,686.64,304.51,666.3,305.01z"/>
	<path fill="#ffffff" d="M165.82,139.48c10.95,0,21.97-0.71,32.85,0.16c18.86,1.51,26.72,12.39,24.11,31.07c-2.44,17.46-9.75,31.92-24.34,42.31
		c-4.53,3.22-7.96,5.71-1.27,11.2c6.5,5.34,4.49,13.21,2.05,20.37c-5.64,16.56-11.61,33.02-16.7,49.74
		c-2.25,7.39-5.71,11.31-13.75,10.71c-5.08-0.38-10.23-0.27-15.33-0.03c-8.63,0.4-12.35-2.42-9.04-11.56
		c4.71-13.02,9.17-26.15,13.35-39.35c3.93-12.39,1.8-17.98-7.33-21.43c-11.52-4.35-19.36-1.04-23.71,10.85
		c-5.5,15.05-10.26,30.38-15.65,45.48c-6.63,18.57-4.43,15.63-22.97,16c-4.38,0.09-8.96,0.62-13.06-0.5
		c-2.14-0.58-4.46-4.15-4.83-6.65c-0.38-2.59,1.47-5.52,2.41-8.29c15.51-45.53,31.34-90.95,46.3-136.66
		c3.25-9.94,7.65-14.68,18.41-13.79c9.43,0.78,18.98,0.16,28.47,0.16C165.82,139.35,165.82,139.41,165.82,139.48z M163.01,158.97
		c-2.07,1.76-8.43,4.7-10.6,9.53c-5.04,11.23-8.01,23.38-11.9,35.13c-2.49,7.5,1.95,8.94,7.83,9.05
		c16.99,0.31,27.49-9.26,34.11-30.98C187.22,166.04,182.69,159.3,163.01,158.97z"/>
	<path fill="#ffffff" d="M266.89,305.49c-8-0.58-16.19-0.3-23.96-1.94c-13.45-2.84-21.89-12.32-18.39-25.27c7.19-26.6,15.82-53.04,26.69-78.32
		c5.44-12.66,18.69-20.96,33.41-22.28c15.92-1.43,32.14-2.66,47.97-1.16c18.89,1.79,27.16,13.82,22.24,32.43
		c-5.76,21.82-12.84,43.47-21.56,64.27c-8.29,19.76-25.47,29.48-46.63,31.55c-6.52,0.64-13.15,0.1-19.74,0.1
		C266.91,305.07,266.9,305.28,266.89,305.49z M276.55,284.09c11-0.48,18.23-8.36,22.27-19.23c6.11-16.41,11.91-32.98,16.67-49.82
		c1.33-4.68,0.14-11.75-2.74-15.57c-4.67-6.19-12-4.35-17.75-0.28c-4.09,2.89-9.06,6.26-10.73,10.55
		c-7.67,19.7-14.9,39.62-21.07,59.84C260.57,278.24,266.07,283.76,276.55,284.09z"/>
	<path fill="#ffffff" d="M413.59,304.59c-7.27,0-14.65,0.78-21.79-0.16c-16.79-2.21-26.14-12.31-22.06-28.35c6.4-25.17,14.79-50.05,24.8-74.02
		c5.36-12.82,17.75-22,32.21-23.66c17.19-1.97,34.82-3.12,51.97-1.54c17.69,1.62,25.69,13.65,21.07,31
		c-5.96,22.39-13.01,44.71-22.09,66c-8.31,19.48-25.5,29.19-46.66,30.99c-5.78,0.49-11.64,0.07-17.46,0.07
		C413.59,304.82,413.59,304.7,413.59,304.59z M462.23,213.04c0.32-13.11-8.97-20.41-17.65-15.97c-6.67,3.41-14.06,9.13-16.87,15.65
		c-7.7,17.88-13.81,36.53-19.26,55.25c-3.28,11.26,4.72,18.86,15.7,15.54c5.2-1.57,11.92-5,13.85-9.39
		C447.26,253.03,455.12,231.33,462.23,213.04z"/>
	<path fill="#ffffff" d="M815.21,249.55c-8.02,0-16.07,0.37-24.06-0.09c-9.72-0.56-14.48,4.13-17.22,13c-4.79,15.52-0.85,21.77,15.67,22.45
		c12.52,0.52,24.86,0.49,33.25-11.82c2.05-3,6.73-4.73,10.54-5.83c2.46-0.7,6.24,0.03,8.11,1.65c1.05,0.91,0.02,5.25-1.15,7.49
		c-8.28,15.97-21.31,26.18-39.28,27.79c-14.47,1.3-29.21,1.44-43.68,0.26c-19.08-1.57-27.64-12.2-22.88-31.44
		c5.73-23.17,13.59-45.99,22.71-68.06c6.03-14.59,18.72-24.87,34.95-26.8c16.5-1.96,33.46-3,49.94-1.47
		c18.72,1.74,25.5,13.57,22.02,32.66C857.05,248.16,855.44,249.48,815.21,249.55z M803.02,230.95c15.68,0.07,20.5-4.08,23.12-19.09
		c1.34-7.69-1.8-12.7-8.6-15.28c-7.4-2.81-18.82,3.69-24.83,13.5c-0.38,0.61-0.7,1.26-1.04,1.89
		C783.92,226.52,786.53,230.88,803.02,230.95z"/>
	<path fill="#ffffff" d="M1029.55,586.81c-18.69,0.08-30.25-14.06-26.58-33.91c3.84-20.78,8.62-41.38,13.21-62.02
		c6.32-28.45,12.95-56.84,19.22-85.3c2-9.09,4.39-8.49,10.61-2.46c8.84,8.58,18.72,16.22,28.81,23.33
		c8.2,5.77,11.04,11.76,8.56,22.07c-8.87,36.83-16.59,73.94-25.09,110.86C1053.92,578.37,1044.71,586.74,1029.55,586.81z"/>
	<path fill="#ffffff" d="M1169.73,119.21c0.47,26.45-20.79,47.94-48.42,48.95c-28.15,1.03-52.23-20.52-52.63-47.09
		c-0.4-26.64,20.58-47.61,48.56-48.56C1146.41,71.51,1169.25,91.83,1169.73,119.21z"/>
	<path fill="#ffffff" d="M884.16,304.94c-2.92,0-5.84-0.04-8.75,0.01c-7.31,0.11-8.28-3.17-6.03-9.59c7.48-21.29,14.53-42.73,21.75-64.11
		c5.13-15.17,10.67-30.22,15.24-45.56c3.08-10.31,10.67-11.55,18.83-10.07c7.16,1.3,18.99-6.28,20.13,8.83
		c0.41,5.48,2.77,5.93,6.57,2.87c12.06-9.71,26.26-11.89,41.11-11.84c6.51,0.02,9.78,2.46,7.02,9.42c-0.8,2.03-1.46,4.12-2.2,6.17
		c-8.95,24.93-4.06,21.82-29.65,22.17c-27.8,0.38-33.94,4.67-43.05,30.7c-4.81,13.74-9.37,27.57-14.24,41.3
		C903.24,306.82,908.23,304.61,884.16,304.94z"/>
	<path fill="#ffffff" d="M1208.87,354.42c-3.5-1.74-10.54-3.99-16.06-8.23c-15.61-11.98-30.9-24.44-45.62-37.49c-3.79-3.35-7.32-9.75-6.97-14.45
		c0.79-10.8,3.89-21.45,6.35-32.09c1.32-5.71,4.98-7.05,9.56-3.31c23.74,19.35,47.43,38.75,71.01,58.29
		c7.6,6.3,9.58,14.82,6.08,23.73C1229.7,349.85,1222.14,354.01,1208.87,354.42z"/>
	<path fill="#ffffff" d="M959.38,571.47c-0.54,8.76-8.96,15.58-18.23,14.76c-8.18-0.72-15.47-7.97-15.57-15.49c-0.11-8.26,8.49-16.21,17.35-16.03
		C952.02,554.89,959.91,562.93,959.38,571.47z"/>
</g>
</svg>
